<svg width="19" height="23" viewBox="0 0 19 23" fill="none" xmlns="http://www.w3.org/2000/svg">
<path d="M10.1967 0.0986328C12.4673 3.45038 9.33202 6.92157 7.21289 2.86276C8.49234 9.63629 4.1557 10.6603 3.70898 6.36666C0.261141 9.41621 0.926578 13.2653 2.75095 16.2456L4.89989 15.0107C4.3372 14.152 4.05637 13.0184 4.18223 11.9067C5.38636 13.755 9.19106 12.3796 8.73492 9.09713C9.23625 10.6006 10.5069 10.4551 11.8184 8.1362C10.0345 12.951 12.8414 16.0741 14.7203 14.6328C14.7892 15.1939 14.582 15.8355 14.2238 16.417L16.4254 17.0043C19.0092 14.7776 20.1618 10.6307 16.2467 8.77637C18.0786 11.6113 15.6326 13.7012 13.4004 10.7202C11.5936 7.33894 17.2612 5.40484 10.1967 0.0986328ZM5.15044 1.25579C2.14444 2.7714 4.46409 4.0922 4.49278 5.58441C6.561 3.75934 4.31831 3.07627 5.15044 1.25579ZM8.64122 13.8696L0.515625 18.5409C0.642656 19.403 0.936563 20.1542 1.39748 20.8144L5.70998 18.7489L2.02148 21.5556C2.18039 21.714 2.35116 21.8659 2.5342 22.0126L6.03656 20C6.03548 19.9654 6.03375 19.9308 6.03375 19.8959C6.03375 18.1512 7.4632 16.729 9.21234 16.729C9.69021 16.7285 10.162 16.8362 10.5923 17.0439C10.4835 16.4151 10.2511 15.7734 9.90234 15.2027L5.45213 17.0835L9.31791 14.4366C9.11447 14.2233 8.88834 14.0315 8.64122 13.8696ZM11.4009 16.5707C11.4764 16.9058 11.5228 17.2417 11.54 17.5697L11.5503 17.7543C12.072 18.3188 12.3911 19.071 12.3911 19.8959C12.3911 20.2511 12.3307 20.6038 12.2124 20.9388L16.4942 22.0815C16.7118 21.7849 16.8968 21.483 17.0494 21.1733L14.0888 20.0161L17.376 20.3369C17.4165 20.1987 17.4514 20.0593 17.48 19.9179L12.9302 18.3139L17.5781 19.039C17.5854 18.7685 17.5733 18.492 17.54 18.2084L11.4009 16.5707ZM9.21234 17.6049C7.93453 17.6049 6.90966 18.6267 6.90966 19.8959C6.90966 21.1651 7.93453 22.1869 9.21239 22.1869C10.4903 22.1869 11.5152 21.1651 11.5152 19.8959C11.5152 18.6268 10.4903 17.6049 9.21234 17.6049ZM8.98097 18.157C11.0331 18.1571 11.7201 21.5131 8.98097 21.5131C10.2289 20.4296 10.3783 19.315 8.98097 18.157ZM8.98973 18.6185C7.97648 19.4583 8.08486 20.2674 8.98973 21.0532C7.00341 21.0532 7.50169 18.6185 8.98973 18.6185Z" fill="#343637"/>
</svg>
