<svg width="24" height="24" viewBox="0 0 24 24" fill="none" xmlns="http://www.w3.org/2000/svg">
<path d="M9.375 11.25C9.27554 11.25 9.18016 11.2895 9.10984 11.3598C9.03951 11.4302 9 11.5255 9 11.625V14.625C9 14.7245 9.03951 14.8198 9.10984 14.8902C9.18016 14.9605 9.27554 15 9.375 15C9.47446 15 9.56984 14.9605 9.64017 14.8902C9.71049 14.8198 9.75 14.7245 9.75 14.625V11.625C9.75 11.5255 9.71049 11.4302 9.64017 11.3598C9.56984 11.2895 9.47446 11.25 9.375 11.25ZM12 6C14.0708 6 15.75 5.37 15.75 4.59375C15.75 3.81675 14.0708 3.1875 12 3.1875C9.92925 3.1875 8.25 3.8175 8.25 4.59375C8.25 5.37075 9.92925 6 12 6ZM12 5.25C10.7573 5.25 9.75 4.914 9.75 4.5C9.75 4.086 10.7573 3.75 12 3.75C13.2428 3.75 14.25 4.086 14.25 4.5C14.25 4.914 13.2428 5.25 12 5.25Z" fill="#343637"/>
<path d="M21.045 5.424C20.6342 5.01212 20.0794 4.776 19.4978 4.7655C19.4655 3.957 19.0748 3.29475 18.6068 2.811C18.1245 2.31225 17.4998 1.93125 16.8443 1.64475C15.5265 1.06875 13.8135 0.75 11.9985 0.75C10.1858 0.75 8.472 1.06875 7.155 1.64475C6.4995 1.93125 5.874 2.31225 5.3925 2.811C4.90425 3.3165 4.5 4.01625 4.5 4.875V11.1645C4.15265 11.1129 3.79803 11.1434 3.46459 11.2536C3.13116 11.3638 2.82819 11.5506 2.58 11.799L2.049 12.3292C1.84003 12.5382 1.67426 12.7862 1.56116 13.0592C1.44807 13.3323 1.38986 13.6249 1.38986 13.9204C1.38986 14.2159 1.44807 14.5085 1.56116 14.7815C1.67426 15.0545 1.84003 15.3026 2.049 15.5115L4.5 17.9625V19.125C4.5 19.9837 4.90425 20.6835 5.3925 21.1898C5.87475 21.6877 6.50025 22.068 7.15575 22.3552C8.47275 22.9312 10.1858 23.25 12 23.25C13.56 23.25 15.0353 23.0145 16.2465 22.59C16.9755 22.3343 17.6625 21.9907 18.2168 21.5445C18.8723 21.0165 19.5 20.2043 19.5 19.125V11.2125L21.576 9.1365C21.785 8.92756 21.9507 8.67951 22.0638 8.4065C22.1769 8.13349 22.2351 7.84088 22.2351 7.54537C22.2351 7.24987 22.1769 6.95726 22.0638 6.68425C21.9507 6.41124 21.785 6.16319 21.576 5.95425L21.0458 5.424H21.045ZM6 14.16V7.45875C6.2355 7.62825 6.48825 7.779 6.75 7.91325V10.875C6.75 10.9745 6.78951 11.0698 6.85984 11.1402C6.93016 11.2105 7.02555 11.25 7.125 11.25C7.22446 11.25 7.31984 11.2105 7.39017 11.1402C7.46049 11.0698 7.5 10.9745 7.5 10.875V8.24625C8.7645 8.73375 10.3403 9 12 9C13.8135 9 15.5273 8.68125 16.8435 8.10525C17.4998 7.818 18.1253 7.43775 18.6068 6.939C18.7658 6.77475 18.9158 6.59025 19.0455 6.38625C19.1896 6.29256 19.3615 6.2512 19.5324 6.26908C19.7033 6.28697 19.8629 6.36302 19.9845 6.4845L20.5155 7.0155C20.6561 7.15615 20.7351 7.34688 20.7351 7.54575C20.7351 7.74462 20.6561 7.93535 20.5155 8.076L18 10.59V19.125C18 19.578 17.7375 20.004 17.2755 20.376C17.0354 20.5654 16.7753 20.7281 16.5 20.8612V17.625C16.5 17.5255 16.4605 17.4302 16.3902 17.3598C16.3198 17.2895 16.2245 17.25 16.125 17.25C16.0255 17.25 15.9302 17.2895 15.8598 17.3598C15.7895 17.4302 15.75 17.5255 15.75 17.625V21.174C14.7225 21.534 13.419 21.75 12 21.75C8.6865 21.75 6 20.5748 6 19.125V17.3407L3.1095 14.451C3.03977 14.3813 2.98445 14.2986 2.94671 14.2076C2.90896 14.1165 2.88954 14.0189 2.88954 13.9204C2.88954 13.8218 2.90896 13.7242 2.94671 13.6332C2.98445 13.5421 3.03977 13.4594 3.1095 13.3898L3.6405 12.8595C3.78115 12.7189 3.97188 12.6399 4.17075 12.6399C4.36962 12.6399 4.56036 12.7189 4.701 12.8595L6 14.16ZM18 4.875C18 6.32475 15.3135 7.5 12 7.5C8.6865 7.5 6 6.32475 6 4.875C6 3.42525 8.6865 2.25 12 2.25C15.3135 2.25 18 3.42525 18 4.875Z" fill="#343637"/>
</svg>
