<svg width="41" height="41" viewBox="0 0 41 41" fill="none" xmlns="http://www.w3.org/2000/svg">
<g clip-path="url(#clip0_58_48)">
<path d="M31.3906 0H9.60938C4.30226 0 0 4.30226 0 9.60938V31.3906C0 36.6977 4.30226 41 9.60938 41H31.3906C36.6977 41 41 36.6977 41 31.3906V9.60938C41 4.30226 36.6977 0 31.3906 0Z" fill="white"/>
<path d="M31.3906 0H9.60938C4.30226 0 0 4.30226 0 9.60938V31.3906C0 36.6977 4.30226 41 9.60938 41H31.3906C36.6977 41 41 36.6977 41 31.3906V9.60938C41 4.30226 36.6977 0 31.3906 0Z" fill="#1D9BF0"/>
<path d="M31.9627 14.64C31.9803 14.8942 31.9803 15.1484 31.9803 15.4049C31.9803 23.2201 26.0308 32.2334 15.1519 32.2334V32.2286C11.9381 32.2332 8.79082 31.3128 6.08594 29.5772C6.55327 29.6334 7.02285 29.6614 7.49371 29.6625C10.1574 29.6646 12.7444 28.7712 14.8391 27.1258C13.6049 27.1025 12.4089 26.6941 11.4182 25.9577C10.4276 25.2213 9.69178 24.1937 9.31373 23.0186C10.1998 23.1895 11.1133 23.1546 11.9839 22.9167C9.22468 22.3592 7.23954 19.935 7.23954 17.1194V17.0445C8.06209 17.5026 8.98265 17.7565 9.92376 17.7847C7.32507 16.0478 6.52396 12.5905 8.09318 9.8874C9.57803 11.7146 11.4307 13.209 13.5307 14.2736C15.6308 15.3382 17.9313 15.949 20.2828 16.0665C20.0484 15.0573 20.083 14.0042 20.3833 13.0125C20.6835 12.0209 21.2389 11.1254 21.9938 10.4158C24.3759 8.17645 28.1225 8.29128 30.3618 10.6722C31.6863 10.4107 32.9564 9.9251 34.1176 9.23636C33.6761 10.6058 32.7521 11.7682 31.5176 12.5074C32.6901 12.3693 33.8351 12.0554 34.9141 11.5764C34.1203 12.7651 33.1209 13.8024 31.9627 14.64Z" fill="white"/>
</g>
<defs>
<clipPath id="clip0_58_48">
<rect width="41" height="41" fill="white"/>
</clipPath>
</defs>
</svg>
