<svg width="41" height="41" viewBox="0 0 41 41" fill="none" xmlns="http://www.w3.org/2000/svg">
<g clip-path="url(#clip0_58_36)">
<path d="M0.874937 20.2542C0.873976 23.699 1.7811 27.0626 3.50598 30.0273L0.709976 40.1568L11.1573 37.4387C14.0469 38.9996 17.2845 39.8175 20.5745 39.8177H20.5831C31.4441 39.8177 40.2852 31.0483 40.2899 20.2696C40.292 15.0465 38.2439 10.1351 34.5228 6.44004C30.8024 2.74527 25.8543 0.709415 20.5823 0.707031C9.72005 0.707031 0.879582 9.47595 0.875097 20.2542" fill="url(#paint0_linear_58_36)"/>
<path d="M0.171367 20.2483C0.170246 23.817 1.10988 27.3009 2.89627 30.3718L0 40.8644L10.8219 38.049C13.8037 39.6621 17.1609 40.5126 20.577 40.5139H20.5858C31.8365 40.5139 40.9952 31.429 41 20.2645C41.0019 14.8538 38.8802 9.76579 35.0262 5.93833C31.1717 2.11134 26.0467 0.00222481 20.5858 0C9.33326 0 0.175852 9.08357 0.171367 20.2483ZM6.61606 29.8429L6.21198 29.2065C4.51336 26.5265 3.61681 23.4296 3.61809 20.2496C3.62177 10.9697 11.233 3.41985 20.5923 3.41985C25.1247 3.42175 29.3842 5.1749 32.588 8.35574C35.7916 11.5369 37.5544 15.7656 37.5533 20.2632C37.5491 29.543 29.9377 37.0939 20.5858 37.0939H20.5791C17.5341 37.0923 14.5476 36.2809 11.9432 34.7475L11.3234 34.3828L4.90142 36.0535L6.61606 29.8428V29.8429Z" fill="url(#paint1_linear_58_36)"/>
<path d="M15.4836 11.7828C15.1015 10.94 14.6993 10.923 14.3359 10.9083C14.0383 10.8955 13.6982 10.8965 13.3583 10.8965C13.0181 10.8965 12.4654 11.0235 11.9983 11.5296C11.5306 12.0362 10.2128 13.2605 10.2128 15.7506C10.2128 18.2407 12.0407 20.6472 12.2955 20.9852C12.5506 21.3226 15.8242 26.596 21.0088 28.6247C25.3177 30.3106 26.1945 29.9753 27.1297 29.8908C28.065 29.8066 30.1477 28.6668 30.5725 27.485C30.9978 26.3033 30.9978 25.2904 30.8703 25.0787C30.7428 24.8678 30.4026 24.7411 29.8925 24.4882C29.3823 24.235 26.8745 23.0106 26.407 22.8416C25.9394 22.6729 25.5994 22.5887 25.2592 23.0954C24.919 23.6014 23.9422 24.7412 23.6445 25.0787C23.3471 25.417 23.0494 25.4591 22.5394 25.206C22.029 24.952 20.3863 24.4182 18.4373 22.6942C16.921 21.3526 15.8973 19.6959 15.5997 19.1891C15.3021 18.6832 15.5678 18.4089 15.8236 18.1567C16.0528 17.9299 16.3339 17.5657 16.5891 17.2703C16.8435 16.9747 16.9284 16.7638 17.0984 16.4263C17.2687 16.0884 17.1835 15.7928 17.0562 15.5397C16.9284 15.2865 15.9371 12.7835 15.4836 11.7828Z" fill="white"/>
</g>
<defs>
<linearGradient id="paint0_linear_58_36" x1="1979.7" y1="3945.69" x2="1979.7" y2="0.707031" gradientUnits="userSpaceOnUse">
<stop stop-color="#1FAF38"/>
<stop offset="1" stop-color="#60D669"/>
</linearGradient>
<linearGradient id="paint1_linear_58_36" x1="2050" y1="4086.44" x2="2050" y2="0" gradientUnits="userSpaceOnUse">
<stop stop-color="#F9F9F9"/>
<stop offset="1" stop-color="white"/>
</linearGradient>
<clipPath id="clip0_58_36">
<rect width="41" height="41" fill="white"/>
</clipPath>
</defs>
</svg>
